<?xml version="1.0" encoding="UTF-8" standalone="no"?>
<!-- Created with Inkscape (http://www.inkscape.org/) -->

<svg
   xmlns:dc="http://purl.org/dc/elements/1.1/"
   xmlns:cc="http://creativecommons.org/ns#"
   xmlns:rdf="http://www.w3.org/1999/02/22-rdf-syntax-ns#"
   xmlns:svg="http://www.w3.org/2000/svg"
   xmlns="http://www.w3.org/2000/svg"
   xmlns:sodipodi="http://sodipodi.sourceforge.net/DTD/sodipodi-0.dtd"
   xmlns:inkscape="http://www.inkscape.org/namespaces/inkscape"
   width="184"
   height="128"
   id="svg2"
   version="1.1"
   inkscape:version="0.48.4 r9939"
   sodipodi:docname="icon-namespace.svg">
  <defs
     id="defs4" />
  <sodipodi:namedview
     id="base"
     pagecolor="#ffffff"
     bordercolor="#666666"
     borderopacity="1.0"
     inkscape:pageopacity="0.0"
     inkscape:pageshadow="2"
     inkscape:zoom="1.4"
     inkscape:cx="-117.55272"
     inkscape:cy="118.03767"
     inkscape:document-units="px"
     inkscape:current-layer="layer1"
     showgrid="false"
     inkscape:window-width="1920"
     inkscape:window-height="1022"
     inkscape:window-x="0"
     inkscape:window-y="27"
     inkscape:window-maximized="1" />
  <metadata
     id="metadata7">
    <rdf:RDF>
      <cc:Work
         rdf:about="">
        <dc:format>image/svg+xml</dc:format>
        <dc:type
           rdf:resource="http://purl.org/dc/dcmitype/StillImage" />
        <dc:title />
      </cc:Work>
    </rdf:RDF>
  </metadata>
  <g
     inkscape:label="Layer 1"
     inkscape:groupmode="layer"
     id="layer1"
     transform="translate(0,-924.36218)">
    <path
       inkscape:connector-curvature="0"
       id="path3296"
       style="font-size:128px;font-style:italic;font-variant:normal;font-weight:normal;font-stretch:normal;line-height:125%;letter-spacing:0px;word-spacing:0px;fill:#ffffff;fill-opacity:1;stroke:none;font-family:DejaVu Serif;-inkscape-font-specification:DejaVu Serif Italic"
       d="m 2.578125,1036.5106 16.710937,-85.8906 -15.8124995,0 1.796875,-9.61329 32.3437495,0 -3.234375,16.98047 c 4.312451,-6.46866 9.223905,-11.35017 14.734375,-14.64453 5.510352,-3.29417 11.49993,-4.94131 17.96875,-4.9414 10.541579,9e-5 17.729072,3.02483 21.5625,9.07421 2.275941,3.65374 3.413961,8.53524 3.414063,14.64454 -1.02e-4,4.01309 -0.509216,8.56517 -1.527344,13.65625 l -9.972656,51.21095 14.734375,0 -1.796875,9.5234 -31.355469,0 10.78125,-55.52342 c 1.197832,-6.16921 1.79679,-11.32024 1.796875,-15.45312 -8.5e-5,-3.65357 -0.479251,-6.52857 -1.4375,-8.625 -2.03654,-4.31242 -6.678462,-6.46867 -13.925781,-6.46875 -7.666729,8e-5 -14.045629,2.81519 -19.136719,8.44531 -5.091191,5.57038 -8.684937,13.71621 -10.78125,24.4375 l -10.332031,53.18748 -16.53125,0" />
    <path
       inkscape:connector-curvature="0"
       id="path3298"
       style="font-size:128px;font-style:normal;font-variant:normal;font-weight:normal;font-stretch:normal;line-height:125%;letter-spacing:0px;word-spacing:0px;fill:#ffffff;fill-opacity:1;stroke:none;font-family:DejaVu Serif;-inkscape-font-specification:DejaVu Serif"
       d="m 121.54688,1030.0106 c -2e-5,-2.3333 0.79165,-4.3125 2.375,-5.9375 1.62498,-1.625 3.60414,-2.4375 5.93749,-2.4375 2.33331,0 4.29165,0.8125 5.875,2.4375 1.62498,1.625 2.43748,3.6042 2.4375,5.9375 -2e-5,2.3334 -0.79169,4.3125 -2.375,5.9375 -1.58335,1.5834 -3.56252,2.375 -5.9375,2.375 -2.37501,0 -4.35418,-0.7916 -5.93749,-2.375 -1.58335,-1.625 -2.37502,-3.6041 -2.375,-5.9375 m 0,-40.74998 c -2e-5,-2.33328 0.79165,-4.29162 2.375,-5.875 1.62498,-1.62495 3.60414,-2.43744 5.93749,-2.4375 2.37498,6e-5 4.35415,0.79172 5.9375,2.375 1.58331,1.58339 2.37498,3.56255 2.375,5.9375 -2e-5,2.37504 -0.79169,4.35421 -2.375,5.9375 -1.58335,1.58337 -3.56252,2.37504 -5.9375,2.375 -2.33335,4e-5 -4.31251,-0.79163 -5.93749,-2.375 -1.58335,-1.62496 -2.37502,-3.60412 -2.375,-5.9375" />
    <path
       inkscape:connector-curvature="0"
       id="path3300"
       style="font-size:128px;font-style:normal;font-variant:normal;font-weight:normal;font-stretch:normal;line-height:125%;letter-spacing:0px;word-spacing:0px;fill:#ffffff;fill-opacity:1;stroke:none;font-family:DejaVu Serif;-inkscape-font-specification:DejaVu Serif"
       d="m 164.79687,1030.0106 c -1e-5,-2.3333 0.79166,-4.3125 2.375,-5.9375 1.62499,-1.625 3.60415,-2.4375 5.9375,-2.4375 2.33331,0 4.29165,0.8125 5.875,2.4375 1.62498,1.625 2.43748,3.6042 2.4375,5.9375 -2e-5,2.3334 -0.79169,4.3125 -2.375,5.9375 -1.58335,1.5834 -3.56252,2.375 -5.9375,2.375 -2.37501,0 -4.35418,-0.7916 -5.9375,-2.375 -1.58334,-1.625 -2.37501,-3.6041 -2.375,-5.9375 m 0,-40.74998 c -1e-5,-2.33328 0.79166,-4.29162 2.375,-5.875 1.62499,-1.62495 3.60415,-2.43744 5.9375,-2.4375 2.37498,6e-5 4.35415,0.79172 5.9375,2.375 1.58331,1.58339 2.37498,3.56255 2.375,5.9375 -2e-5,2.37504 -0.79169,4.35421 -2.375,5.9375 -1.58335,1.58337 -3.56252,2.37504 -5.9375,2.375 -2.33335,4e-5 -4.31251,-0.79163 -5.9375,-2.375 -1.58334,-1.62496 -2.37501,-3.60412 -2.375,-5.9375" />
  </g>
</svg>
