<?xml version="1.0" encoding="UTF-8" standalone="no"?>
<!-- Created with Inkscape (http://www.inkscape.org/) -->

<svg
   xmlns:dc="http://purl.org/dc/elements/1.1/"
   xmlns:cc="http://creativecommons.org/ns#"
   xmlns:rdf="http://www.w3.org/1999/02/22-rdf-syntax-ns#"
   xmlns:svg="http://www.w3.org/2000/svg"
   xmlns="http://www.w3.org/2000/svg"
   xmlns:sodipodi="http://sodipodi.sourceforge.net/DTD/sodipodi-0.dtd"
   xmlns:inkscape="http://www.inkscape.org/namespaces/inkscape"
   width="210mm"
   height="297mm"
   viewBox="0 0 744.09448819 1052.3622047"
   id="svg2"
   version="1.1"
   inkscape:version="0.91 r13725"
   sodipodi:docname="icon-iterator.svg">
  <defs
     id="defs4" />
  <sodipodi:namedview
     id="base"
     pagecolor="#ffffff"
     bordercolor="#666666"
     borderopacity="1.0"
     inkscape:pageopacity="0.0"
     inkscape:pageshadow="2"
     inkscape:zoom="0.35"
     inkscape:cx="-46.428571"
     inkscape:cy="520"
     inkscape:document-units="px"
     inkscape:current-layer="layer1"
     showgrid="false"
     inkscape:window-width="1366"
     inkscape:window-height="706"
     inkscape:window-x="-8"
     inkscape:window-y="-8"
     inkscape:window-maximized="1" />
  <metadata
     id="metadata7">
    <rdf:RDF>
      <cc:Work
         rdf:about="">
        <dc:format>image/svg+xml</dc:format>
        <dc:type
           rdf:resource="http://purl.org/dc/dcmitype/StillImage" />
        <dc:title></dc:title>
      </cc:Work>
    </rdf:RDF>
  </metadata>
  <g
     inkscape:label="Layer 1"
     inkscape:groupmode="layer"
     id="layer1">
    <g
       style="font-style:normal;font-variant:normal;font-weight:normal;font-stretch:condensed;font-size:125px;line-height:125%;font-family:'Rockwell Condensed';-inkscape-font-specification:'Rockwell Condensed, Condensed';letter-spacing:0px;word-spacing:0px;fill:none;fill-opacity:1;stroke:none;stroke-width:1px;stroke-linecap:butt;stroke-linejoin:miter;stroke-opacity:1"
       id="text4370">
      <path
         d="m 228.14069,484.57062 q 3.11279,0 5.24902,2.13623 2.13623,2.13623 2.13623,5.24902 0,3.05176 -2.13623,5.24903 -2.13623,2.13623 -5.24902,2.13623 -3.05176,0 -5.24903,-2.13623 -2.13623,-2.19727 -2.13623,-5.24903 0,-3.11279 2.13623,-5.24902 2.19727,-2.13623 5.24903,-2.13623 z m -5.3711,82.88574 0,-42.90771 -4.63867,0 0,-10.62012 16.17432,0 0,53.52783 3.60107,0 0,10.62012 -19.77539,0 0,-10.62012 4.63867,0 z"
         style="fill:none"
         id="path4375" />
      <path
         d="m 245.77985,578.07648 0,-15.13672 12.57324,0 0,15.13672 -12.57324,0 z"
         style="fill:none"
         id="path4377" />
      <path
         d="m 266.77594,578.07648 0,-15.13672 12.57324,0 0,15.13672 -12.57324,0 z"
         style="fill:none"
         id="path4379" />
      <path
         d="m 286.73444,578.07648 0,-10.62012 4.76074,0 0,-42.90771 -5.00488,0 0,-10.62012 16.47949,0 0,5.12695 0.30517,0 q 3.96729,-5.85937 9.70459,-5.85937 5.06592,0 7.93457,4.21142 2.92969,4.15039 2.92969,11.65772 l 0,38.39111 4.76074,0 0,10.62012 -16.23535,0 0,-47.24121 q 0,-3.90625 -0.79346,-5.43213 -0.73242,-1.58692 -2.80761,-1.58692 -2.31934,0 -4.08936,2.0752 -1.70898,2.07519 -1.70898,2.56348 l 0,39.00146 4.76074,0 0,10.62012 -20.99609,0 z"
         style="fill:none"
         id="path4381" />
    </g>
  </g>
</svg>
