<?xml version="1.0" encoding="UTF-8" standalone="no"?>
<!-- Created with Inkscape (http://www.inkscape.org/) -->

<svg
   xmlns:dc="http://purl.org/dc/elements/1.1/"
   xmlns:cc="http://creativecommons.org/ns#"
   xmlns:rdf="http://www.w3.org/1999/02/22-rdf-syntax-ns#"
   xmlns:svg="http://www.w3.org/2000/svg"
   xmlns="http://www.w3.org/2000/svg"
   xmlns:sodipodi="http://sodipodi.sourceforge.net/DTD/sodipodi-0.dtd"
   xmlns:inkscape="http://www.inkscape.org/namespaces/inkscape"
   width="184"
   height="128"
   id="svg2"
   version="1.1"
   inkscape:version="0.48.4 r9939"
   sodipodi:docname="icon-class.svg">
  <defs
     id="defs4" />
  <sodipodi:namedview
     id="base"
     pagecolor="#ffffff"
     bordercolor="#666666"
     borderopacity="1.0"
     inkscape:pageopacity="0.0"
     inkscape:pageshadow="2"
     inkscape:zoom="1.4"
     inkscape:cx="14.621205"
     inkscape:cy="89.792531"
     inkscape:document-units="px"
     inkscape:current-layer="layer1"
     showgrid="false"
     inkscape:window-width="1920"
     inkscape:window-height="1022"
     inkscape:window-x="0"
     inkscape:window-y="27"
     inkscape:window-maximized="1" />
  <metadata
     id="metadata7">
    <rdf:RDF>
      <cc:Work
         rdf:about="">
        <dc:format>image/svg+xml</dc:format>
        <dc:type
           rdf:resource="http://purl.org/dc/dcmitype/StillImage" />
        <dc:title />
      </cc:Work>
    </rdf:RDF>
  </metadata>
  <g
     inkscape:label="Layer 1"
     inkscape:groupmode="layer"
     id="layer1"
     transform="translate(0,-924.36218)">
    <path
       inkscape:connector-curvature="0"
       id="path3477"
       style="font-size:128px;font-style:normal;font-variant:normal;font-weight:normal;font-stretch:normal;line-height:125%;letter-spacing:0px;word-spacing:0px;fill:#ffffff;fill-opacity:1;stroke:none;font-family:DejaVu Serif;-inkscape-font-specification:DejaVu Serif"
       d="m 53.09375,1040.8622 0,6.5625 -3.875,0 c -10.375051,0 -17.333378,-1.5417 -20.875,-4.625 -3.500037,-3.0834 -5.250035,-9.2292 -5.25,-18.4375 l 0,-16.125 c -3.5e-5,-6.25 -1.125034,-10.58332 -3.375,-13.00002 -2.25003,-2.41663 -6.333359,-3.62496 -12.25,-3.625 l -3.8125,0 0,-6.5625 3.8125,0 c 5.916641,4e-5 9.99997,-1.20829 12.25,-3.625 2.249966,-2.41662 3.374965,-6.74995 3.375,-13 l 0,-16.125 c -3.5e-5,-9.20825 1.749963,-15.33324 5.25,-18.375 3.541622,-3.08324 10.499949,-4.6249 20.875,-4.625 l 3.875,0 0,6.5 -4.25,0 c -5.875055,9e-5 -9.708385,0.91676 -11.5,2.75 -1.791715,1.83342 -2.687547,5.68758 -2.6875,11.5625 l 0,17.9375 c -4.7e-5,6.58339 -1.041713,11.29172 -3.125,14.125 -2.083375,2.83338 -5.833371,4.87504 -11.25,6.125 5.499962,1.41671 9.270791,3.52087 11.3125,6.3125 2.041621,2.7917 3.062453,7.45832 3.0625,14.00002 l 0,17.9375 c -4.7e-5,5.875 0.895785,9.7291 2.6875,11.5625 1.791615,1.8333 5.624945,2.75 11.5,2.75 l 4.25,0" />
    <path
       inkscape:connector-curvature="0"
       id="path3481"
       style="font-size:128px;font-style:normal;font-variant:normal;font-weight:normal;font-stretch:normal;line-height:125%;letter-spacing:0px;word-spacing:0px;fill:#ffffff;fill-opacity:1;stroke:none;font-family:DejaVu Serif;-inkscape-font-specification:DejaVu Serif"
       d="m 130.90625,1040.8622 4.375,0 c 5.83331,0 9.62497,-0.9167 11.375,-2.75 1.79163,-1.7917 2.68747,-5.6459 2.6875,-11.5625 l 0,-17.9375 c -3e-5,-6.5417 1.0208,-11.20832 3.0625,-14.00002 2.04163,-2.79163 5.79162,-4.89579 11.25,-6.3125 -5.41671,-1.24996 -9.16671,-3.29162 -11.25,-6.125 -2.0417,-2.83328 -3.06253,-7.54161 -3.0625,-14.125 l 0,-17.9375 c -3e-5,-5.91658 -0.89587,-9.77074 -2.6875,-11.5625 -1.75003,-1.83324 -5.54169,-2.74991 -11.375,-2.75 l -4.375,0 0,-6.5 3.9375,0 c 10.37497,1e-4 17.29163,1.54176 20.75,4.625 3.49996,3.04176 5.24995,9.16675 5.25,18.375 l 0,16.125 c -5e-5,6.25005 1.12495,10.58338 3.375,13 2.24995,2.41671 6.33328,3.62504 12.25,3.625 l 3.875,0 0,6.5625 -3.875,0 c -5.91672,4e-5 -10.00005,1.20837 -12.25,3.625 -2.25005,2.4167 -3.37505,6.75002 -3.375,13.00002 l 0,16.125 c -5e-5,9.2083 -1.75004,15.3541 -5.25,18.4375 -3.45837,3.0833 -10.37503,4.625 -20.75,4.625 l -3.9375,0 0,-6.5625" />
    <text
       xml:space="preserve"
       style="font-size:128px;font-style:normal;font-variant:normal;font-weight:normal;font-stretch:normal;line-height:125%;letter-spacing:0px;word-spacing:0px;fill:#000000;fill-opacity:1;stroke:none;font-family:DejaVu Serif;-inkscape-font-specification:DejaVu Serif"
       x="135"
       y="30.857143"
       id="text3472"
       sodipodi:linespacing="125%"
       transform="translate(0,924.36218)"><tspan
         sodipodi:role="line"
         id="tspan3474" /></text>
    <g
       style="font-size:128px;font-style:italic;font-variant:normal;font-weight:normal;font-stretch:normal;line-height:125%;letter-spacing:0px;word-spacing:0px;fill:#ffffff;fill-opacity:1;stroke:none;font-family:DejaVu Serif;-inkscape-font-specification:DejaVu Serif Italic"
       id="text2988">
      <path
         d="m 117.90625,1005.6433 c -3.00006,7.0834 -7.18756,12.4792 -12.5625,16.1875 -5.33338,3.7083 -11.666706,5.5625 -19,5.5625 -9.666689,0 -16.812515,-3.1875 -21.4375,-9.5625 -3.20834,-4.4583 -4.812505,-9.8958 -4.8125,-16.3125 -5e-6,-2.87496 0.312494,-5.93746 0.9375,-9.18749 2.083325,-10.62496 6.666654,-19.10411 13.75,-25.4375 7.124973,-6.37493 15.520798,-9.56243 25.1875,-9.5625 4.20828,7e-5 8.29161,0.50007 12.25,1.5 3.99994,0.9584 7.89577,2.43756 11.6875,4.4375 l -3.25,17 -6.6875,0 c -6e-5,-0.58329 -6e-5,-1.12495 0,-1.625 -6e-5,-4.99995 -1.08339,-8.70828 -3.25,-11.125 -2.41672,-2.66661 -6.35422,-3.99994 -11.8125,-4 -6.208371,6e-5 -11.375033,2.41673 -15.5,7.25 -4.083358,4.79172 -7.062522,11.97921 -8.9375,21.5625 -0.833352,4.37503 -1.250019,8.27089 -1.25,11.68749 -1.9e-5,4 0.583314,7.3125 1.75,9.9375 2.208311,4.8334 6.437473,7.25 12.6875,7.25 4.958295,0 9.166624,-1.2917 12.625,-3.875 3.45828,-2.5833 6.24995,-6.4791 8.375,-11.6875 l 9.25,0"
         style=""
         id="path2993" />
    </g>
  </g>
</svg>
