<?xml version="1.0" encoding="UTF-8" standalone="no"?>
<svg
   xmlns:dc="http://purl.org/dc/elements/1.1/"
   xmlns:cc="http://creativecommons.org/ns#"
   xmlns:rdf="http://www.w3.org/1999/02/22-rdf-syntax-ns#"
   xmlns:svg="http://www.w3.org/2000/svg"
   xmlns="http://www.w3.org/2000/svg"
   version="1.1"
   id="svg2"
   viewBox="0 0 744.09448819 1052.3622047"
   height="297mm"
   width="210mm">
  <defs
     id="defs4" />
  <metadata
     id="metadata7">
    <rdf:RDF>
      <cc:Work
         rdf:about="">
        <dc:format>image/svg+xml</dc:format>
        <dc:type
           rdf:resource="http://purl.org/dc/dcmitype/StillImage" />
        <dc:title></dc:title>
      </cc:Work>
    </rdf:RDF>
  </metadata>
  <g
     id="layer1">
    <g
       id="text4348"
       style="font-style:normal;font-variant:normal;font-weight:normal;font-stretch:condensed;font-size:125px;line-height:125%;font-family:'Rockwell Condensed';-inkscape-font-specification:'Rockwell Condensed, Condensed';letter-spacing:0px;word-spacing:0px;fill:none;fill-opacity:1;stroke:none;stroke-width:1px;stroke-linecap:butt;stroke-linejoin:miter;stroke-opacity:1">
      <path
         id="path4353"
         style="fill:none"
         d="m 197.97084,441.31937 0,-112.36573 19.104,0 0,7.75147 -7.62939,0 0,96.86279 7.62939,0 0,7.75147 -19.104,0 z" />
      <path
         id="path4355"
         style="fill:none"
         d="m 270.54164,328.95364 0,33.63037 -9.70459,0 0,-23.92578 -7.75146,0 0,71.167 7.26318,0 0,11.10839 -27.52686,0 0,-11.10839 7.26319,0 0,-71.167 -7.75147,0 0,23.92578 -9.76562,0 0,-33.63037 47.97363,0 z" />
      <path
         id="path4357"
         style="fill:none"
         d="m 295.13881,328.95364 0,112.36573 -19.104,0 0,-7.75147 7.62939,0 0,-96.86279 -7.62939,0 0,-7.75147 19.104,0 z" />
    </g>
  </g>
</svg>
