<?xml version="1.0" encoding="UTF-8" standalone="no"?>
<!-- Created with Inkscape (http://www.inkscape.org/) -->

<svg
   xmlns:dc="http://purl.org/dc/elements/1.1/"
   xmlns:cc="http://creativecommons.org/ns#"
   xmlns:rdf="http://www.w3.org/1999/02/22-rdf-syntax-ns#"
   xmlns:svg="http://www.w3.org/2000/svg"
   xmlns="http://www.w3.org/2000/svg"
   xmlns:sodipodi="http://sodipodi.sourceforge.net/DTD/sodipodi-0.dtd"
   xmlns:inkscape="http://www.inkscape.org/namespaces/inkscape"
   width="184"
   height="128"
   id="svg2"
   version="1.1"
   inkscape:version="0.48.4 r9939"
   sodipodi:docname="icon-variable.svg">
  <defs
     id="defs4" />
  <sodipodi:namedview
     id="base"
     pagecolor="#ffffff"
     bordercolor="#666666"
     borderopacity="1.0"
     inkscape:pageopacity="0.0"
     inkscape:pageshadow="2"
     inkscape:zoom="1.4"
     inkscape:cx="-43.535713"
     inkscape:cy="118.03767"
     inkscape:document-units="px"
     inkscape:current-layer="layer1"
     showgrid="false"
     inkscape:window-width="1920"
     inkscape:window-height="1022"
     inkscape:window-x="0"
     inkscape:window-y="27"
     inkscape:window-maximized="1" />
  <metadata
     id="metadata7">
    <rdf:RDF>
      <cc:Work
         rdf:about="">
        <dc:format>image/svg+xml</dc:format>
        <dc:type
           rdf:resource="http://purl.org/dc/dcmitype/StillImage" />
        <dc:title></dc:title>
      </cc:Work>
    </rdf:RDF>
  </metadata>
  <g
     inkscape:label="Layer 1"
     inkscape:groupmode="layer"
     id="layer1"
     transform="translate(0,-924.36218)">
    <text
       xml:space="preserve"
       style="font-size:128px;font-style:normal;font-variant:normal;font-weight:normal;font-stretch:normal;line-height:125%;letter-spacing:0px;word-spacing:0px;fill:#000000;fill-opacity:1;stroke:none;font-family:DejaVu Serif;-inkscape-font-specification:DejaVu Serif"
       x="135"
       y="30.857143"
       id="text3472"
       sodipodi:linespacing="125%"
       transform="translate(0,924.36218)"><tspan
         sodipodi:role="line"
         id="tspan3474"></tspan></text>
    <path
       inkscape:connector-curvature="0"
       id="path3560"
       style="font-size:184px;font-style:normal;font-variant:normal;font-weight:normal;font-stretch:normal;line-height:125%;letter-spacing:0px;word-spacing:0px;fill:#ffffff;fill-opacity:1;stroke:none;font-family:DejaVu Serif;-inkscape-font-specification:DejaVu Serif"
       d="m 42.794922,1035.4061 -12.128906,0 -18.417969,-85.8906 -10.871094,0 1.796875,-9.61328 24.707031,0 16.171875,75.28908 c 6.887965,-5.9896 12.637959,-12.7877 17.25,-20.39455 9.583257,-15.81244 16.081949,-30.90618 19.496094,-45.28125 l -10.960937,0 1.886718,-9.61328 24.707032,0 c -6.528742,24.67716 -13.92587,43.93365 -22.191407,57.76953 -7.187572,11.97915 -17.669333,24.55735 -31.445312,37.73435" />
    <path
       inkscape:connector-curvature="0"
       id="path3562"
       style="font-size:100px;font-style:normal;font-variant:normal;font-weight:normal;font-stretch:normal;line-height:125%;letter-spacing:0px;word-spacing:0px;fill:#ffffff;fill-opacity:1;stroke:none;font-family:DejaVu Serif;-inkscape-font-specification:DejaVu Serif"
       d="m 116.64648,1029.3007 c -4.32945,6.3476 -9.99351,9.5214 -16.99218,9.5214 -5.729183,0 -10.04233,-1.9368 -12.939456,-5.8105 -2.018234,-2.7344 -3.027347,-6.0547 -3.027344,-9.9609 -3e-6,-1.6602 0.179033,-3.418 0.537109,-5.2735 2.213536,-11.4908 7.324208,-20.1985 15.332031,-26.123 6.80336,-5.04555 14.32288,-7.56833 22.55859,-7.56838 5.53381,5e-5 9.24475,0.47205 11.13282,1.41601 l -9.08203,46.72847 7.71484,0 -0.97656,5.1758 -15.82032,0 1.5625,-8.1054 m -23.486324,-6.543 c -1.3e-5,6.9661 3.369124,10.4492 10.107424,10.4492 4.10153,0 7.53577,-1.6276 10.30273,-4.8828 2.79945,-3.2878 4.81767,-8.0566 6.05469,-14.3066 l 4.54102,-23.5352 0,0 c -5e-5,-0.944 -1.30213,-1.416 -3.90625,-1.416 -6.25004,0 -11.80016,2.4414 -16.65039,7.3242 -4.81773,4.9154 -8.089213,11.8327 -9.814458,20.752 -0.42319,2.0833 -0.634779,3.9551 -0.634766,5.6152" />
    <path
       inkscape:connector-curvature="0"
       id="path3564"
       style="font-size:100px;font-style:normal;font-variant:normal;font-weight:normal;font-stretch:normal;line-height:125%;letter-spacing:0px;word-spacing:0px;fill:#ffffff;fill-opacity:1;stroke:none;font-family:DejaVu Serif;-inkscape-font-specification:DejaVu Serif"
       d="m 182.62305,985.40417 -2.53907,12.98833 -5.17578,0 c 0.0976,-0.6511 0.14644,-1.2533 0.14649,-1.8067 -5e-5,-1.6926 -0.39067,-3.011 -1.17188,-3.9551 -1.00916,-1.2694 -2.73441,-1.9042 -5.17578,-1.9043 -4.42712,10e-5 -8.12177,1.53 -11.08398,4.5899 -2.96227,3.0599 -4.99677,7.4544 -6.10352,13.1836 l -5.61523,28.9062 -8.98438,0 9.08203,-46.7773 -8.59375,0 0.97657,-5.12697 17.57812,0 -1.75781,9.22847 c 2.44138,-3.6132 5.2083,-6.2825 8.30078,-8.00777 3.12496,-1.75776 6.67314,-2.63666 10.64453,-2.63671 1.4648,5e-5 2.97847,0.11398 4.54102,0.34179 1.56245,0.22792 3.20633,0.55344 4.93164,0.97656" />
  </g>
</svg>
