<?xml version="1.0" encoding="UTF-8" standalone="no"?>
<!-- Created with Inkscape (http://www.inkscape.org/) -->

<svg
   xmlns:dc="http://purl.org/dc/elements/1.1/"
   xmlns:cc="http://creativecommons.org/ns#"
   xmlns:rdf="http://www.w3.org/1999/02/22-rdf-syntax-ns#"
   xmlns:svg="http://www.w3.org/2000/svg"
   xmlns="http://www.w3.org/2000/svg"
   xmlns:sodipodi="http://sodipodi.sourceforge.net/DTD/sodipodi-0.dtd"
   xmlns:inkscape="http://www.inkscape.org/namespaces/inkscape"
   width="184"
   height="128"
   id="svg2"
   version="1.1"
   inkscape:version="0.48.4 r9939"
   sodipodi:docname="icon-enum.svg">
  <defs
     id="defs4" />
  <sodipodi:namedview
     id="base"
     pagecolor="#ffffff"
     bordercolor="#666666"
     borderopacity="1.0"
     inkscape:pageopacity="0.0"
     inkscape:pageshadow="2"
     inkscape:zoom="1.4"
     inkscape:cx="-43.535713"
     inkscape:cy="118.03767"
     inkscape:document-units="px"
     inkscape:current-layer="layer1"
     showgrid="false"
     inkscape:window-width="1920"
     inkscape:window-height="1022"
     inkscape:window-x="0"
     inkscape:window-y="27"
     inkscape:window-maximized="1" />
  <metadata
     id="metadata7">
    <rdf:RDF>
      <cc:Work
         rdf:about="">
        <dc:format>image/svg+xml</dc:format>
        <dc:type
           rdf:resource="http://purl.org/dc/dcmitype/StillImage" />
        <dc:title></dc:title>
      </cc:Work>
    </rdf:RDF>
  </metadata>
  <g
     inkscape:label="Layer 1"
     inkscape:groupmode="layer"
     id="layer1"
     transform="translate(0,-924.36218)">
    <text
       xml:space="preserve"
       style="font-size:128px;font-style:normal;font-variant:normal;font-weight:normal;font-stretch:normal;line-height:125%;letter-spacing:0px;word-spacing:0px;fill:#000000;fill-opacity:1;stroke:none;font-family:DejaVu Serif;-inkscape-font-specification:DejaVu Serif"
       x="135"
       y="30.857143"
       id="text3472"
       sodipodi:linespacing="125%"
       transform="translate(0,924.36218)"><tspan
         sodipodi:role="line"
         id="tspan3474"></tspan></text>
    <path
       inkscape:connector-curvature="0"
       id="path3626"
       style="font-size:128px;font-style:normal;font-variant:normal;font-weight:normal;font-stretch:normal;line-height:125%;letter-spacing:0px;word-spacing:0px;fill:#ffffff;fill-opacity:1;stroke:none;font-family:DejaVu Serif;-inkscape-font-specification:DejaVu Serif"
       d="m 51.96875,1040.8622 0,6.5625 -3.875,0 c -10.375051,0 -17.333378,-1.5417 -20.875,-4.625 -3.500037,-3.0834 -5.250035,-9.2292 -5.25,-18.4375 l 0,-16.125 c -3.5e-5,-6.25 -1.125034,-10.58331 -3.375,-13.00001 -2.25003,-2.4167 -6.333359,-3.625 -12.25,-3.625 l -3.8125,0 0,-6.5625 3.8125,0 c 5.916641,0 9.99997,-1.2083 12.25,-3.62502 2.249966,-2.41662 3.374965,-6.74995 3.375,-13 l 0,-16.125 c -3.5e-5,-9.20825 1.749963,-15.33324 5.25,-18.375 3.541622,-3.08324 10.499949,-4.6249 20.875,-4.625 l 3.875,0 0,6.5 -4.25,0 c -5.875055,9e-5 -9.708385,0.91676 -11.5,2.75 -1.791715,1.83342 -2.687547,5.68758 -2.6875,11.5625 l 0,17.9375 c -4.7e-5,6.58339 -1.041713,11.29172 -3.125,14.125 -2.083375,2.83342 -5.833371,4.87502 -11.25,6.12502 5.499962,1.4167 9.270791,3.5209 11.3125,6.3125 2.041621,2.7917 3.062453,7.45831 3.0625,14.00001 l 0,17.9375 c -4.7e-5,5.875 0.895785,9.7291 2.6875,11.5625 1.791615,1.8333 5.624945,2.75 11.5,2.75 l 4.25,0" />
    <path
       inkscape:connector-curvature="0"
       id="path3628"
       style="font-size:176px;font-style:normal;font-variant:normal;font-weight:normal;font-stretch:normal;line-height:125%;letter-spacing:0px;word-spacing:0px;fill:#ffffff;fill-opacity:1;stroke:none;font-family:DejaVu Serif;-inkscape-font-specification:DejaVu Serif"
       d="m 133.16406,972.63564 -33.601558,15.64062 33.601558,15.89844 -6.53125,10.1406 -29.906246,-18.64841 1.117188,32.74211 -11.6875,0 1.117187,-32.74211 -29.90625,18.64841 -6.53125,-10.1406 33.601563,-15.72656 -33.601563,-15.8125 6.53125,-10.22657 29.90625,18.64844 -1.117187,-32.74219 11.6875,0 -1.117188,32.74219 29.906246,-18.64844 6.53125,10.22657" />
    <path
       inkscape:connector-curvature="0"
       id="path3630"
       style="font-size:128px;font-style:normal;font-variant:normal;font-weight:normal;font-stretch:normal;line-height:125%;letter-spacing:0px;word-spacing:0px;fill:#ffffff;fill-opacity:1;stroke:none;font-family:DejaVu Serif;-inkscape-font-specification:DejaVu Serif"
       d="m 132.03125,1040.8622 4.375,0 c 5.83331,0 9.62497,-0.9167 11.375,-2.75 1.79163,-1.7917 2.68747,-5.6459 2.6875,-11.5625 l 0,-17.9375 c -3e-5,-6.5417 1.0208,-11.20831 3.0625,-14.00001 2.04163,-2.7916 5.79162,-4.8958 11.25,-6.3125 -5.41671,-1.25 -9.16671,-3.2916 -11.25,-6.12502 -2.0417,-2.83328 -3.06253,-7.54161 -3.0625,-14.125 l 0,-17.9375 c -3e-5,-5.91658 -0.89587,-9.77074 -2.6875,-11.5625 -1.75003,-1.83324 -5.54169,-2.74991 -11.375,-2.75 l -4.375,0 0,-6.5 3.9375,0 c 10.37497,10e-5 17.29163,1.54176 20.75,4.625 3.49996,3.04176 5.24995,9.16675 5.25,18.375 l 0,16.125 c -5e-5,6.25005 1.12495,10.58338 3.375,13 2.24995,2.41672 6.33328,3.62502 12.25,3.62502 l 3.875,0 0,6.5625 -3.875,0 c -5.91672,0 -10.00005,1.2083 -12.25,3.625 -2.25005,2.4167 -3.37505,6.75001 -3.375,13.00001 l 0,16.125 c -5e-5,9.2083 -1.75004,15.3541 -5.25,18.4375 -3.45837,3.0833 -10.37503,4.625 -20.75,4.625 l -3.9375,0 0,-6.5625" />
  </g>
</svg>
